# xmcd
#
# Track frame offsets: 
#        150
#        12770
#        33667
#        54537
#        76430
#        100232
#        123692
#        143337
#        161792
#        179055
#        199960
#        214930
#        235005
#        248490
#        254555
#
# Disc length: 3620 seconds
#
# Revision: 5
# Processed by: cddbd v1.5.2PL0 Copyright (c) Steve Scherf et al.
# Submitted via: ExactAudioCopyFreeDBPlugin 1.0
#
DISCID=d50e220f
DTITLE=SWV - It's About Time
DYEAR=1992
DGENRE=R&B
TTITLE0=Anything
TTITLE1=I'm So Into You
TTITLE2=Right Here
TTITLE3=Weak
TTITLE4=You're Always On My Mind
TTITLE5=Downtown
TTITLE6=Coming Home
TTITLE7=Give It To Me
TTITLE8=Blak Pudd'n
TTITLE9=It's About Time
TTITLE10=Think You're Gonna Like It
TTITLE11=That's What I Need
TTITLE12=SWV (In the House)
TTITLE13=Weak (A Cappella)
TTITLE14=Right Here - Human Nature (Remix)
EXTD=
EXTT0=
EXTT1=
EXTT2=
EXTT3=
EXTT4=
EXTT5=
EXTT6=
EXTT7=
EXTT8=
EXTT9=
EXTT10=
EXTT11=
EXTT12=
EXTT13=
EXTT14=
PLAYORDER=
